<svg width="24" height="24" viewBox="0 0 24 24" fill="none" xmlns="http://www.w3.org/2000/svg">
<path d="M4.1 10.5L19.9 10.5C21.4 10.5 22 9.86 22 8.27L22 4.23C22 2.64 21.4 2 19.9 2L4.1 2C2.6 2 2 2.64 2 4.23L2 8.27C2 9.86 2.6 10.5 4.1 10.5Z" stroke="#292D32" stroke-width="1.5" stroke-linecap="round" stroke-linejoin="round"/>
<path d="M15.48 22H20.02C21.43 22 22 21.36 22 19.77L22 15.73C22 14.14 21.43 13.5 20.02 13.5L15.49 13.5C14.07 13.5 13.51 14.14 13.51 15.73L13.51 19.77C13.5 21.36 14.07 22 15.48 22Z" stroke="#292D32" stroke-width="1.5" stroke-linecap="round" stroke-linejoin="round"/>
<path d="M4.23 22H8.27C9.86 22 10.5 21.36 10.5 19.77L10.5 15.73C10.5 14.14 9.86 13.5 8.27 13.5L4.23 13.5C2.64 13.5 2 14.14 2 15.73L2 19.77C2 21.36 2.64 22 4.23 22Z" stroke="#292D32" stroke-width="1.5" stroke-linecap="round" stroke-linejoin="round"/>
</svg>
